<?xml version="1.0" encoding="utf-8"?>
<!-- Generator: Adobe Illustrator 25.4.1, SVG Export Plug-In . SVG Version: 6.00 Build 0)  -->
<svg version="1.1" id="Layer_1" xmlns="http://www.w3.org/2000/svg" xmlns:xlink="http://www.w3.org/1999/xlink" x="0px" y="0px"
	 viewBox="0 0 115 41" style="enable-background:new 0 0 115 41;" xml:space="preserve">
<style type="text/css">
	.st0{fill:#FFFFFF;}
	.st1{fill-rule:evenodd;clip-rule:evenodd;fill:#FFFFFF;}
</style>
<path class="st0" d="M4.1,3.8h19.6c0.1,0,0.2-0.1,0.3-0.1l2.9-3.1c0,0,0,0,0-0.1c0,0,0,0,0-0.1c0,0,0,0,0-0.1c0,0,0,0-0.1,0H1
	c-0.2,0-0.4,0.1-0.5,0.2C0.3,0.7,0.2,0.9,0.2,1.1v38.9c0,0.2,0.1,0.4,0.2,0.5c0.1,0.1,0.3,0.2,0.5,0.2h8.4c0,0,7.4,0,12.4-9
	c2.3-4.3,3.3-9.2,3-14.2c-0.1-2.2-0.5-4.7-2.4-6.1c-2-1.6-5.1-0.3-6.4,1.6c-1.3,1.9-1.5,4.7-1.7,6.9c-0.2,2.5,0,4.9,0.4,7.4
	c0.6,3.4,2.9,7.4,6.6,8.4c3.9,1.1,7.3-2.2,8.8-5.3c1.9-4,2.5-8.5,2.9-12.8c0.3-4.6,0.4-9.3,0.1-13.9c-0.1-2.2-3.5-2.2-3.4,0
	c0.4,8,1.2,15.9-1.6,23.5c-0.7,2-3.9,7.4-7.5,4.5c-0.8-0.6-1.4-1.3-1.7-2.2c-1-3.2-1.4-6.5-1.1-9.9c0.1-1.6,0.3-4.2,1.6-5.3
	c0.1-0.1,0.2-0.1,0.3-0.2c0.1,0,0.2,0,0.4,0c0.1,0,0.2,0.1,0.3,0.1c0.1,0.1,0.2,0.2,0.3,0.3c0.6,1,0.9,2.2,1,3.4
	c0.1,1.3,0.1,2.5-0.1,3.8c-1.5,9.5-6.3,13.2-6.3,13.2c-0.9,0.9-2,1.6-3.2,2.1c-1.2,0.5-2.5,0.7-3.8,0.7H4.1c-0.1,0-0.1,0-0.2,0
	s-0.1-0.1-0.1-0.1c0,0-0.1-0.1-0.1-0.1c0-0.1,0-0.1,0-0.2V4.2c0-0.1,0-0.1,0-0.2c0-0.1,0.1-0.1,0.1-0.1c0,0,0.1-0.1,0.1-0.1
	C4,3.8,4,3.8,4.1,3.8L4.1,3.8z"/>
<path class="st0" d="M31.5,3.8l2.8,3.5c0.5,0.4,1.1,0.9,1.8,0.5c0.3-0.2,0.5-0.5,0.6-0.8c0.1-0.3,0-0.7-0.1-1l-5.1-5.4
	c0,0-0.1-0.1-0.1-0.1c0,0-0.1,0-0.1,0s-0.1,0-0.1,0c0,0-0.1,0-0.1,0.1l-4.7,5.1c-0.1,0.1-0.1,0.3-0.2,0.5c0,0.2,0,0.3,0,0.5
	c0.1,0.3,0.3,0.6,0.6,0.8c0.3,0.2,0.6,0.2,1,0.1c0.3-0.1,0.6-0.3,0.8-0.6L31.5,3.8z"/>
<path class="st0" d="M6.9,5.3H5.6c-0.1,0-0.2,0.1-0.2,0.2v7.4c0,0.1,0.1,0.2,0.2,0.2h1.3c0.1,0,0.2-0.1,0.2-0.2V5.5
	C7.1,5.4,7,5.3,6.9,5.3z"/>
<path class="st0" d="M6.9,14.7H5.6c-0.1,0-0.2,0.1-0.2,0.2v4c0,0.1,0.1,0.2,0.2,0.2h1.3c0.1,0,0.2-0.1,0.2-0.2v-4
	C7.1,14.8,7,14.7,6.9,14.7z"/>
<path class="st0" d="M3.7,10.6H0.2v3.4h3.4V10.6z"/>
<g id="Group" transform="translate(66.000000, 48.000000)">
	<path id="Fill-1_1_" class="st1" d="M-9.6-20.2v4h-3.1c-3.4,0-5.6-2-5.6-5.3v-14.8l-5.4,0v-4h6.2c1.8,0,3.2,1.4,3.2,3.2v15.3
		c0,1,0.5,1.5,1.4,1.5H-9.6z"/>
	<path id="Fill-3_1_" class="st1" d="M5.8-24.7c0-3-1.9-4.9-4.6-4.9c-2.7,0-4.8,1.9-4.8,4.9c0,3,2.1,4.9,4.8,4.9
		C3.9-19.8,5.8-21.7,5.8-24.7 M-8.1-24.7c0-5,3.7-8.9,9.2-8.9c5.5,0,9.1,3.9,9.1,8.9s-3.7,8.9-9.1,8.9C-4.4-15.8-8.1-19.7-8.1-24.7"
		/>
	<path id="Fill-5_1_" class="st1" d="M25.8-24.7c0-3-1.9-4.9-4.6-4.9c-2.7,0-4.8,1.9-4.8,4.9c0,3,2.1,4.9,4.8,4.9
		C23.8-19.8,25.8-21.7,25.8-24.7 M11.9-24.7c0-5,3.7-8.9,9.2-8.9c5.5,0,9.1,3.9,9.1,8.9s-3.7,8.9-9.1,8.9
		C15.6-15.8,11.9-19.7,11.9-24.7"/>
	<path id="Fill-7_1_" class="st1" d="M44.6-24.7c0-2.7-1.7-4.4-4.3-4.4c-2.4,0-4.3,1.9-4.3,4.4c0,2.7,2.1,4.2,4.3,4.2
		C42.9-20.4,44.6-22.1,44.6-24.7L44.6-24.7z M31.9-33.1l4.1,0l0,1.5h0.3c0.6-0.8,2.2-1.9,4.7-1.9c4.7,0,7.9,3.5,7.9,8.8
		c0,5.3-3.2,8.9-7.7,9c-2.1,0-4.2-0.8-4.8-1.8H36l0,8.7l-4.1,0V-33.1z"/>
</g>
</svg>
